# xmcd CD database file
#
# Track frame offsets:
#	150
#	12462
#	29269
#	49610
#	67619
#	81450
#	97406
#	112880
#	129504
#	150033
#	170747
#	187131
#	201725
#	214041
#
# Disc length: 3053 seconds
#
# Revision: 0
# Processed by: cddbd v1.5.1PL2 Copyright (c) Steve Scherf et al.
# Submitted via: CDex 1.50Beta7
#
DISCID=c20beb0e
DTITLE=The New Standards - The New Standards
DYEAR=2005
DGENRE=Jazz
TTITLE0=The Inchworm
TTITLE1=The New Pollution
TTITLE2=I Will Dare
TTITLE3=All the Young Dudes
TTITLE4=Man, Oh Man
TTITLE5=Nature Boy
TTITLE6=Only Love Can Break Your Heart
TTITLE7=Town Crier
TTITLE8=Love is the Law
TTITLE9=Oh Yeah
TTITLE10=Dark End of the Street
TTITLE11=My Ship
TTITLE12=Song 2
TTITLE13=September Song
EXTD=YEAR: 2005
EXTT0=
EXTT1=
EXTT2=
EXTT3=
EXTT4=
EXTT5=
EXTT6=
EXTT7=
EXTT8=
EXTT9=
EXTT10=
EXTT11=
EXTT12=
EXTT13=
PLAYORDER=
